# xmcd
#
# Track frame offsets:
#	150
#	12192
#	34625
#	54285
#	70912
#	90312
#	115050
#	135402
#	150390
#	169972
#	187705
#	204887
#
# Disc length: 3019 seconds
#
# Revision: 1
# Processed by: cddbd v1.4PL0 Copyright (c) Steve Scherf et al.
# Submitted via: audiograbber 1.81.02
#
DISCID=830bc90c
DTITLE=Gene Deer - Livin' with The Blues
DYEAR=1998
DGENRE=Blues
TTITLE0=Just Shoulda' Lay'd Off'a The Booze
TTITLE1=Too Far Gone
TTITLE2=I Want Out
TTITLE3=One Foot On The Road
TTITLE4=Good With The Bad
TTITLE5=Livin' With The Blues
TTITLE6=Smokestack Lightning
TTITLE7=Potato Soup
TTITLE8=Can't Afford to Pay The Rent
TTITLE9=Blues in The Afternoon
TTITLE10=Morristown
TTITLE11=Dream
EXTD=
EXTT0=
EXTT1=
EXTT2=
EXTT3=
EXTT4=
EXTT5=
EXTT6=
EXTT7=
EXTT8=
EXTT9=
EXTT10=
EXTT11=
PLAYORDER=
